<mxfile host="app.diagrams.net" modified="2022-03-09T23:04:49.842Z" agent="5.0 (Windows)" etag="ARgm2LZzc4Aai3pWN5O0" version="17.0.0" type="github">
  <diagram id="xJZi1Lj-JuJhT-P9O1O5" name="Page-1">
    <mxGraphModel dx="868" dy="1550" grid="1" gridSize="10" guides="1" tooltips="1" connect="1" arrows="1" fold="1" page="1" pageScale="1" pageWidth="850" pageHeight="1100" math="0" shadow="0">
      <root>
        <mxCell id="0" />
        <mxCell id="1" parent="0" />
        <mxCell id="qfdr7OhVTFZG4qHf7e_s-1" value="" style="edgeStyle=orthogonalEdgeStyle;rounded=0;orthogonalLoop=1;jettySize=auto;html=1;exitX=0.75;exitY=0;exitDx=0;exitDy=0;entryX=0;entryY=0.5;entryDx=0;entryDy=0;strokeWidth=3;" edge="1" parent="1" source="qfdr7OhVTFZG4qHf7e_s-8" target="qfdr7OhVTFZG4qHf7e_s-3">
          <mxGeometry x="0.4426" relative="1" as="geometry">
            <mxPoint as="offset" />
          </mxGeometry>
        </mxCell>
        <mxCell id="qfdr7OhVTFZG4qHf7e_s-2" style="edgeStyle=orthogonalEdgeStyle;rounded=0;orthogonalLoop=1;jettySize=auto;html=1;exitX=0.75;exitY=1;exitDx=0;exitDy=0;entryX=0;entryY=0.5;entryDx=0;entryDy=0;strokeWidth=3;" edge="1" parent="1" source="qfdr7OhVTFZG4qHf7e_s-8" target="qfdr7OhVTFZG4qHf7e_s-10">
          <mxGeometry relative="1" as="geometry" />
        </mxCell>
        <mxCell id="qfdr7OhVTFZG4qHf7e_s-3" value="&lt;div&gt;2. Drive&lt;/div&gt;" style="ellipse;whiteSpace=wrap;html=1;aspect=fixed;fontSize=24;strokeWidth=3;" vertex="1" parent="1">
          <mxGeometry x="275" y="30" width="150" height="150" as="geometry" />
        </mxCell>
        <mxCell id="qfdr7OhVTFZG4qHf7e_s-4" style="edgeStyle=orthogonalEdgeStyle;rounded=0;orthogonalLoop=1;jettySize=auto;html=1;exitX=1;exitY=0.5;exitDx=0;exitDy=0;entryX=0;entryY=0.5;entryDx=0;entryDy=0;strokeWidth=3;" edge="1" parent="1" source="qfdr7OhVTFZG4qHf7e_s-8" target="qfdr7OhVTFZG4qHf7e_s-9">
          <mxGeometry relative="1" as="geometry" />
        </mxCell>
        <mxCell id="qfdr7OhVTFZG4qHf7e_s-5" value="&lt;div style=&quot;font-size: 16px;&quot;&gt;&lt;font style=&quot;font-size: 16px;&quot;&gt;Player&lt;/font&gt;&lt;/div&gt;&lt;div style=&quot;font-size: 16px;&quot;&gt;&lt;font style=&quot;font-size: 16px;&quot;&gt;Input&lt;/font&gt;&lt;br style=&quot;font-size: 16px;&quot;&gt;&lt;/div&gt;" style="edgeLabel;html=1;align=center;verticalAlign=middle;resizable=0;points=[];fontSize=16;labelBackgroundColor=#FFFFFF;" vertex="1" connectable="0" parent="qfdr7OhVTFZG4qHf7e_s-4">
          <mxGeometry x="-0.2952" y="-1" relative="1" as="geometry">
            <mxPoint x="3" y="-1" as="offset" />
          </mxGeometry>
        </mxCell>
        <mxCell id="qfdr7OhVTFZG4qHf7e_s-6" style="edgeStyle=orthogonalEdgeStyle;rounded=0;orthogonalLoop=1;jettySize=auto;html=1;exitX=0.5;exitY=0;exitDx=0;exitDy=0;entryX=0;entryY=0.5;entryDx=0;entryDy=0;strokeWidth=3;" edge="1" parent="1" source="qfdr7OhVTFZG4qHf7e_s-8" target="qfdr7OhVTFZG4qHf7e_s-11">
          <mxGeometry relative="1" as="geometry" />
        </mxCell>
        <mxCell id="qfdr7OhVTFZG4qHf7e_s-7" style="edgeStyle=orthogonalEdgeStyle;rounded=0;orthogonalLoop=1;jettySize=auto;html=1;exitX=0.5;exitY=1;exitDx=0;exitDy=0;entryX=0;entryY=0.5;entryDx=0;entryDy=0;strokeWidth=3;" edge="1" parent="1" source="qfdr7OhVTFZG4qHf7e_s-8" target="qfdr7OhVTFZG4qHf7e_s-12">
          <mxGeometry relative="1" as="geometry" />
        </mxCell>
        <mxCell id="qfdr7OhVTFZG4qHf7e_s-8" value="&lt;font style=&quot;font-size: 24px&quot;&gt;Player&lt;/font&gt;" style="rounded=1;whiteSpace=wrap;html=1;strokeWidth=3;" vertex="1" parent="1">
          <mxGeometry x="50" y="245" width="120" height="60" as="geometry" />
        </mxCell>
        <mxCell id="qfdr7OhVTFZG4qHf7e_s-9" value="&lt;div&gt;3. Stop&lt;/div&gt;" style="ellipse;whiteSpace=wrap;html=1;aspect=fixed;fontSize=24;strokeWidth=3;" vertex="1" parent="1">
          <mxGeometry x="275" y="200" width="150" height="150" as="geometry" />
        </mxCell>
        <mxCell id="qfdr7OhVTFZG4qHf7e_s-10" value="&lt;div&gt;4. Get Out&lt;br&gt;&lt;/div&gt;" style="ellipse;whiteSpace=wrap;html=1;aspect=fixed;fontSize=24;strokeWidth=3;" vertex="1" parent="1">
          <mxGeometry x="275" y="370" width="150" height="150" as="geometry" />
        </mxCell>
        <mxCell id="qfdr7OhVTFZG4qHf7e_s-11" value="&lt;div&gt;1. Get in&lt;br&gt;&lt;/div&gt;" style="ellipse;whiteSpace=wrap;html=1;aspect=fixed;fontSize=24;strokeWidth=3;" vertex="1" parent="1">
          <mxGeometry x="275" y="-140" width="150" height="150" as="geometry" />
        </mxCell>
        <mxCell id="qfdr7OhVTFZG4qHf7e_s-12" value="5. Store Item" style="ellipse;whiteSpace=wrap;html=1;aspect=fixed;fontSize=24;strokeWidth=3;" vertex="1" parent="1">
          <mxGeometry x="275" y="540" width="150" height="150" as="geometry" />
        </mxCell>
        <mxCell id="qfdr7OhVTFZG4qHf7e_s-13" value="&lt;span style=&quot;background-color: rgb(255 , 255 , 255)&quot;&gt;&lt;font style=&quot;font-size: 16px&quot;&gt;Player Input&lt;/font&gt;&lt;/span&gt;" style="text;html=1;align=center;verticalAlign=middle;resizable=0;points=[];autosize=1;strokeColor=none;fillColor=default;" vertex="1" parent="1">
          <mxGeometry x="77" y="370" width="100" height="20" as="geometry" />
        </mxCell>
        <mxCell id="qfdr7OhVTFZG4qHf7e_s-14" value="Player Input" style="text;html=1;align=center;verticalAlign=middle;resizable=0;points=[];autosize=1;strokeColor=none;fillColor=default;fontSize=16;" vertex="1" parent="1">
          <mxGeometry x="70" y="150" width="100" height="20" as="geometry" />
        </mxCell>
      </root>
    </mxGraphModel>
  </diagram>
</mxfile>
